<?xml version="1.0" encoding="UTF-8"?>
<svg id="Layer_2" data-name="Layer 2" xmlns="http://www.w3.org/2000/svg" viewBox="0 0 308.99 185.7">
  <defs>
    <style>
      .cls-1 {
        fill: #f15a29;
      }

      .cls-2 {
        fill: #fbb040;
      }
    </style>
  </defs>
  <g id="Layer_1-2" data-name="Layer 1">
    <path class="cls-1" d="M257.85,37.31c-4.58-1.34-12.87.78-12.87.78.17-.06.25-.09.41-.15-35.14,7.55-69.08,8.21-104.56,2.52-9.35-1.73-14.01-2.81-23.29-5.42,0,0,.01,0,.01,0,0,0-8.7-2.63-14.13-1.22-3.19.83-3.82,2.96-3.81,4.62.95,5.95,1.42,8.92,2.37,14.87,3.57,22.43,7.14,44.85,10.71,67.28.02.49,0,1.81-.97,2.55-1.19.92-3.48.68-3.48.68-16.49-2.4-32.51-5.68-48.61-10,0,0-2.21-.68-3.89-2.52-.84-.91-1.43-1.98-1.82-2.82-6.81-25.14-13.62-50.29-20.43-75.44-.87-2.4-2.97-7.22-7.4-13.1-6.22-8.28-13.15-13.88-13.15-13.88.13.08.2.12.33.2-.74-.61-1.11-.91-1.85-1.54.08.1.12.14.2.23C11.62,4.97,4.74-1.05,1.63.16-1.51,1.39.85,9.44.85,9.44h0c8.51,30.9,17.02,61.81,25.54,92.72l1.8,6.54c1.83,6.64,2.74,9.96,4.57,16.61,1.08,2.88,3.14,7.47,6.43,11.34,4.93,5.8,9.91,6.67,10.53,6.77,27.29,3.83,54.43,5.66,81.99,5.64.64-.01,5.81-.26,9.42-3.31,3.89-3.28,3.64-7.7,3.64-7.7.06.12.09.19.14.31-.2-4.71-.3-7.06-.49-11.77-.85-20.34-1.7-40.68-2.55-61.02.16-.54.57-1.29,1.61-1.72,1.72-.72,4.72-.36,4.72-.36,21.56,2.25,42.39,2.35,63.97.25,0,0,2.92-.33,4.42.34.88.39,1.14,1.07,1.2,1.57-2.99,12.75-5.98,25.5-8.97,38.24h0s-1.04,4.2,2.81,6.41c3.58,2.05,9.36,1.04,10.08.9.52-.1.78-.16,1.29-.26.73-.15,6.56-1.5,11.68-5.37,5.52-4.17,6.94-8.54,6.94-8.54h0c4.98-14.26,9.96-28.53,14.94-42.79,0,0,0,0,.01,0,1.64-4.69,2.46-7.03,4.09-11.72.33-1.12.92-4.12-2.83-5.22"/>
    <path class="cls-2" d="M242.14,163.18h0s4.78-.77,9.69-4.95c4.65-3.96,6.78-8.66,7.03-9.23,0,0,0,0,0-.01,0-.03.02-.05.02-.05h0c.85-1.97,1.28-2.96,2.13-4.93,15.72-36.48,31.43-72.95,47.15-109.43h0s0-.02.02-.05t0-.01c.24-.57,2.14-5.09-.92-5.71-3.24-.66-10.31,3.24-10.31,3.24-.73.39-1.09.57-1.82.95h0s-7.13,3.56-13.48,9c-4.32,3.7-6.19,6.74-6.96,8.38-11.69,29.9-23.38,59.8-35.07,89.7-.37.59-.94,1.36-1.75,2.02-1.54,1.26-3.52,1.74-3.52,1.74-14.17,3.21-28.48,5.81-42.86,7.85,0,0-2,.25-3.02-.5-.73-.53-.83-1.46-.82-1.95l10.94-61.05c.1-.96.19-4.23-3.92-6.41-4.79-2.55-12.5-2.28-12.5-2.28.03,0,.04,0,.06,0-.64.02-.96.02-1.59.03.02,0,.03,0,.05,0,0,0-7.71-.02-13.18,2.81-3.95,2.04-5.02,4.79-5.32,6.2-.69,21.41-1.39,42.83-2.08,64.24-.18.51-.51,1.13-1.1,1.63-1.23,1.04-3.25,1.25-3.25,1.25-14.48,1.17-29.01,1.83-43.54,2.02,0,0-2.02-.01-3.43-1.14-1.42-1.14-1.84-3.07-1.84-3.07-3.25-16.66-6.5-33.32-9.76-49.99-.58-1.8-2.13-5.33-6.07-8.9-5.51-5-12.33-7.17-12.33-7.17.01,0,.02,0,.03,0-.55-.18-.83-.27-1.38-.46.01.01.02.01.04.02,0,0-6.81-2.47-10.39.01-3.61,2.5-1.86,8.65-1.86,8.65h0c5.25,20.58,10.5,41.15,15.75,61.73.99,3.88,1.48,5.81,2.47,9.68.6,2.37.91,3.56,1.51,5.94h0s1.49,6.15,6.04,9.89c4.5,3.7,9.31,2.74,9.31,2.74,47.27-7.48,94.69-13.96,141.8-22.41"/>
  </g>
</svg>